<svg version="1.1" id="Layer_1" xmlns="http://www.w3.org/2000/svg" xmlns:xlink="http://www.w3.org/1999/xlink" x="0px" y="0px"
	 width="100%" viewBox="0 0 496 496" enable-background="new 0 0 496 496" xml:space="preserve">
<path fill="#000000" opacity="1.000000" stroke="none" 
	d="
M32.000000,1.000000 
	C186.966141,1.000000 341.932281,1.000000 496.949219,1.000000 
	C496.949219,166.263336 496.949219,331.526703 496.949219,496.895020 
	C331.772827,496.895020 166.545547,496.895020 1.000000,496.895020 
	C1.000000,335.308563 1.000000,173.616928 1.168588,11.778265 
	C0.761403,16.991501 5.658395,17.766842 8.607982,19.930544 
	C14.656108,24.367214 21.330481,26.218601 28.842861,23.618984 
	C35.217907,21.412933 35.273476,19.166662 31.241865,15.528380 
	C27.231922,11.909651 27.833473,8.598722 32.051220,5.129021 
	C33.034210,4.320372 34.625893,4.224474 35.067474,2.484300 
	C34.048145,1.991063 33.024071,1.495532 32.000000,1.000000 
M259.429535,110.622322 
	C266.096710,109.061012 272.640350,110.133690 279.194916,111.461182 
	C289.072083,113.461594 297.235474,119.091286 305.716309,123.990051 
	C311.573822,127.373497 317.354065,130.106842 324.469971,129.686157 
	C330.274017,129.343018 333.121277,132.755295 333.356293,138.701263 
	C333.560272,143.863403 331.436890,148.438065 329.827820,153.149307 
	C329.083191,155.329468 328.109314,157.391373 328.796509,159.900314 
	C332.336212,172.823334 332.445312,185.834488 329.496002,198.891602 
	C328.724854,202.305618 329.164307,204.962296 333.041412,206.491455 
	C337.627899,208.300400 339.646545,212.205719 338.815063,216.960358 
	C337.614075,223.828247 335.991638,230.629791 334.343140,237.409592 
	C333.183624,242.178253 330.458405,245.829773 325.737640,247.739456 
	C324.160004,248.377670 322.762482,249.195602 322.389404,251.107758 
	C319.956848,263.575623 311.677643,272.262482 302.164246,279.299316 
	C295.267548,284.400635 292.533386,289.519318 294.068634,297.984283 
	C294.842804,302.252869 296.093140,304.444427 300.180969,305.735077 
	C308.113190,308.239380 315.944275,311.087585 323.725311,314.036011 
	C327.028503,315.287720 329.876740,315.244629 333.269196,313.990540 
	C357.521423,305.025146 384.308960,313.867767 398.396606,335.112213 
	C405.492950,345.813629 408.091431,357.551727 407.428680,370.250092 
	C407.157837,375.440216 408.249054,375.878143 413.284637,374.966644 
	C428.368530,372.236267 438.894043,362.670746 446.440125,350.540497 
	C456.126831,334.969269 456.942963,317.671509 451.480988,300.133728 
	C449.492706,293.749542 446.692627,288.738373 438.596802,290.259918 
	C436.560211,290.642700 434.296112,289.976776 434.434875,287.246948 
	C434.557465,284.834198 436.676208,284.679901 438.571564,284.664978 
	C443.903351,284.622986 449.247345,284.833374 454.564697,284.543945 
	C462.815735,284.094818 469.191620,278.551636 470.489044,271.119019 
	C471.647369,264.483490 467.529694,257.254272 461.053772,254.553894 
	C456.123108,252.497849 451.992554,253.652924 448.809296,258.002808 
	C447.963593,259.158447 447.554688,260.852539 445.012238,260.416412 
	C444.448242,255.180038 447.908112,252.663116 451.914001,251.063217 
	C455.629791,249.579193 456.036926,247.377228 455.071045,243.989075 
	C451.561615,231.678604 437.245361,227.924698 427.075287,236.714310 
	C422.784271,240.422867 421.103302,239.905655 419.674225,234.448273 
	C419.422119,233.485626 419.190277,232.509918 418.837860,231.582489 
	C415.759277,223.480774 406.576691,218.298141 398.402435,220.023254 
	C388.606293,222.090637 381.916321,229.980316 382.509918,238.925751 
	C382.651123,241.054001 383.706390,243.366516 381.200256,244.722916 
	C379.001709,245.912842 377.503448,244.077164 375.827179,243.077866 
	C369.863403,239.522629 362.569427,241.367294 360.476837,247.725510 
	C358.868500,252.612381 356.109253,253.363144 351.633606,253.408569 
	C341.093872,253.515518 333.802582,263.932129 337.123138,273.596283 
	C339.523041,280.581024 345.328430,284.527435 353.839417,284.597809 
	C367.169067,284.707977 380.500153,284.631897 393.830566,284.664948 
	C395.992096,284.670288 398.747742,284.504669 398.694702,287.526245 
	C398.642731,290.486664 395.894073,290.330231 393.731201,290.334167 
	C379.567719,290.359985 365.401642,290.513580 351.241425,290.297455 
	C340.967987,290.140656 332.128510,282.283356 330.615143,272.550690 
	C328.769348,260.680145 335.846649,250.137283 347.687439,247.687149 
	C351.670166,246.863037 354.520203,245.450302 356.724915,241.740570 
	C359.550995,236.985306 364.605804,234.883789 369.956177,234.969757 
	C374.562836,235.043777 376.577606,233.391571 378.266937,229.127579 
	C384.628204,213.071030 405.508759,208.503052 418.168701,220.091553 
	C421.609650,223.241272 431.587189,226.359879 436.286163,225.754410 
	C442.635986,224.936234 442.902985,224.568909 440.720245,218.311157 
	C433.207367,196.771912 418.882416,181.797348 397.426178,173.877975 
	C394.499573,172.797760 392.724213,171.571869 392.303619,168.160919 
	C390.356781,152.370895 386.410553,136.967056 377.900391,123.508118 
	C373.656464,116.796272 372.965973,107.526184 364.660217,103.487320 
	C364.468018,103.393852 364.473114,102.894730 364.321442,102.354065 
	C365.700531,101.327179 368.635620,101.234924 367.880615,98.513443 
	C367.185822,96.008919 364.784790,96.462196 362.826691,96.389847 
	C361.661682,96.346794 360.494293,96.372787 359.328125,96.355453 
	C356.684662,96.316154 355.065430,94.964821 354.006165,92.229042 
	C362.753784,90.289551 371.771149,93.345139 380.606598,90.257973 
	C378.625061,87.091797 376.310577,87.471001 374.240845,87.450760 
	C366.243195,87.372543 358.244385,87.359619 350.246399,87.400024 
	C347.681641,87.412979 345.412201,86.908951 343.178253,85.484215 
	C323.084076,72.668907 301.428558,66.576897 277.371918,69.298393 
	C255.579346,71.763756 236.718887,80.568726 220.562057,94.875526 
	C206.125671,107.658852 195.929779,123.626678 189.762497,141.971222 
	C188.458725,145.849258 186.728149,146.729904 182.797623,145.581085 
	C172.829803,142.667709 162.585739,141.624893 152.384277,144.063599 
	C131.900436,148.960342 114.515228,159.206497 103.948975,177.721375 
	C99.323746,185.826019 94.213753,187.725769 86.094345,186.524124 
	C83.722435,186.173111 80.776871,185.525299 78.832481,188.158768 
	C79.976135,190.715942 82.119873,190.508621 84.043350,190.571335 
	C86.705788,190.658127 89.376831,190.482483 92.039169,190.570724 
	C93.730988,190.626816 96.120949,189.945023 96.178596,192.790161 
	C96.226753,195.166687 94.738281,196.238968 92.347565,196.464813 
	C90.664055,196.623840 88.558533,196.532745 88.077972,198.907959 
	C88.314476,199.270950 88.457710,199.571747 88.672554,199.807251 
	C89.971115,201.230759 93.638443,199.782364 93.134262,203.310593 
	C92.691872,206.406372 89.691078,205.615356 87.888405,206.023636 
	C77.031120,208.482697 67.231392,213.230637 59.940002,221.489182 
	C45.365238,237.997177 42.209003,257.360504 47.881550,278.365753 
	C48.310017,279.952393 48.964474,281.550842 50.709156,282.276367 
	C53.131859,283.283875 64.066353,280.184509 65.284309,277.831879 
	C70.173149,268.388397 77.930672,264.514771 88.320847,265.675079 
	C92.085968,266.095520 93.700623,264.286591 94.610008,260.890900 
	C98.043541,248.069748 106.312500,239.887329 119.403809,237.882690 
	C133.397354,235.739914 144.657059,240.875671 151.874054,253.406509 
	C153.975998,257.056091 155.993774,257.697601 159.903091,255.927017 
	C178.247375,247.618607 196.587189,257.198822 200.505234,276.947968 
	C201.153854,280.217346 202.390152,282.622284 205.630295,284.268829 
	C211.777756,287.392761 215.955017,292.446289 218.592484,298.904572 
	C219.871017,302.035248 218.584915,306.889313 222.278214,308.115356 
	C225.649521,309.234467 229.123566,306.167358 232.668610,305.343201 
	C233.310913,305.193878 233.911240,304.866486 234.533447,304.627838 
	C236.420639,303.903992 237.471603,302.608154 237.634003,300.524231 
	C237.892593,297.206024 238.270523,293.897125 238.596588,290.584167 
	C238.863480,287.872437 238.051712,285.710693 235.628952,284.196533 
	C234.222534,283.317535 232.915512,282.255493 231.656723,281.168213 
	C222.153290,272.959656 212.770676,264.649750 210.033493,251.509995 
	C209.610809,249.480896 208.278961,248.411301 206.438889,247.743790 
	C201.978821,246.125824 199.411011,242.655014 198.144821,238.356308 
	C196.125732,231.501480 194.564285,224.522720 193.479889,217.442780 
	C192.661057,212.096664 194.639923,208.156967 199.569931,206.184006 
	C203.378860,204.659668 203.988602,202.519119 202.912048,198.790176 
	C199.662781,187.535461 198.205582,176.040833 198.633698,164.278275 
	C199.374786,143.916794 210.561447,128.355270 229.696411,121.426445 
	C232.813324,120.297798 236.061707,119.572533 238.965378,117.789337 
	C244.990051,114.089462 251.579803,111.815292 259.429535,110.622322 
M115.124123,329.738525 
	C117.475914,329.841980 120.416634,329.747345 120.650505,332.717346 
	C120.907753,335.983978 117.802917,335.786011 115.550011,336.041565 
	C112.517914,336.385529 111.103416,337.456116 111.959595,340.951843 
	C117.796204,364.782257 129.512573,385.116211 148.954025,400.188782 
	C169.144150,415.841766 192.014816,423.272827 217.936523,419.710632 
	C236.160202,417.206299 252.392319,410.458160 266.854309,399.083710 
	C272.359589,394.753845 276.693146,389.172791 282.429199,384.972809 
	C290.162292,390.625122 296.977966,397.562134 306.683655,399.877319 
	C307.774353,396.764160 305.901825,395.185150 304.909515,393.392151 
	C300.568207,385.548004 297.768524,377.279114 297.631500,368.230225 
	C297.527527,361.365662 297.531464,361.347626 290.513611,361.346466 
	C254.513641,361.340454 218.513687,361.345490 182.513718,361.341827 
	C180.680801,361.341644 178.832260,361.440338 177.018097,361.243408 
	C172.819717,360.787567 170.339584,357.772034 171.020950,353.659637 
	C171.644104,349.898651 172.529724,346.163239 173.572266,342.493988 
	C175.066635,337.234436 174.534851,336.293060 168.985397,336.242188 
	C158.319443,336.144318 147.652084,336.200256 136.986099,336.103973 
	C134.698792,336.083344 131.679031,336.206757 131.539764,333.092987 
	C131.377533,329.465393 134.607025,329.754120 137.042786,329.741669 
	C149.042450,329.680298 161.045059,329.568665 173.041306,329.778625 
	C177.619247,329.858765 181.328796,329.012421 184.624741,325.462616 
	C188.645935,321.131714 193.906357,318.496277 199.563675,316.704010 
	C202.894928,315.648651 206.135849,314.301849 209.481354,313.299652 
	C212.973267,312.253632 214.051254,310.044006 213.836411,306.529175 
	C213.332748,298.289154 207.773926,291.247742 199.073242,288.263306 
	C192.698395,286.076660 186.149612,288.492401 182.690002,294.272369 
	C181.872772,295.637695 181.620590,297.529236 179.313232,297.892609 
	C177.334274,296.255707 178.339355,294.361725 179.207077,292.650452 
	C181.367615,288.389526 185.004883,285.961365 189.473511,284.489502 
	C194.933121,282.691162 195.631989,281.178986 194.026016,275.616211 
	C189.314880,259.297791 169.636215,253.977066 157.208023,265.661346 
	C151.934082,270.619629 150.636261,270.296387 148.899353,263.591827 
	C145.440674,250.241135 133.926010,241.687012 121.784477,243.575562 
	C108.196205,245.689163 98.933662,256.768188 100.153221,270.267059 
	C100.339653,272.330658 101.018303,274.802765 98.619156,276.139618 
	C96.197350,277.489075 94.620415,275.470428 92.860466,274.306580 
	C84.283951,268.634979 74.209206,271.777588 71.157097,281.627686 
	C69.745697,286.182678 67.701553,287.555664 63.074230,287.440247 
	C50.421799,287.124725 40.498913,296.537872 40.389217,308.385956 
	C40.278126,320.384003 49.904816,329.645172 62.700226,329.693970 
	C79.866623,329.759430 97.033432,329.719666 115.124123,329.738525 
M317.635040,236.493973 
	C318.163788,225.675232 317.219788,214.895508 316.517822,204.126846 
	C316.043671,196.852707 315.181458,189.562592 313.325867,182.467361 
	C311.903717,177.029602 310.017120,176.117783 304.636719,177.915543 
	C298.133453,180.088470 291.496399,181.555817 284.592102,181.350403 
	C267.742798,180.849106 252.342178,175.453720 237.706619,167.447021 
	C232.086761,164.372559 230.209259,164.821915 226.511200,170.063690 
	C221.411713,177.291870 219.026840,185.582764 217.373718,194.125168 
	C214.419342,209.391602 215.321304,224.844864 214.759048,240.251648 
	C214.318573,252.321823 218.160919,261.643066 226.322357,269.776886 
	C229.265732,272.710297 232.217438,275.682220 235.470551,278.249908 
	C250.836914,290.378571 267.179901,297.055542 285.867065,285.495422 
	C303.763885,274.424286 319.936371,262.016754 317.635040,236.493973 
M197.814026,355.212128 
	C202.869293,356.730255 202.516312,349.823334 206.423035,349.431274 
	C207.301086,351.670380 204.279312,353.056824 206.057693,356.032501 
	C214.022644,352.566589 215.985168,343.572662 222.821213,337.660889 
	C219.915649,344.278992 215.371613,348.879211 213.686539,355.154449 
	C220.347733,356.614075 219.949432,348.987305 224.470459,348.007660 
	C225.132767,350.805634 221.774567,352.367767 222.621826,355.239899 
	C223.354889,355.392578 224.133240,355.695129 224.912125,355.696564 
	C247.903992,355.738678 270.895996,355.729950 293.887787,355.793396 
	C296.893005,355.801666 298.409698,354.436951 299.163055,351.611115 
	C301.933411,341.219635 307.343872,332.411682 315.092285,324.934601 
	C319.138977,321.029602 318.605591,318.501129 313.435669,316.503052 
	C307.694611,314.284210 301.886627,312.198608 296.000732,310.406647 
	C291.169647,308.935791 289.075470,305.869049 288.549652,300.993011 
	C288.191406,297.671173 288.483032,294.084259 286.189636,290.513489 
	C273.550842,297.371155 260.791473,298.219940 247.892502,291.599304 
	C245.597733,290.421417 244.481094,291.713257 244.352982,294.062897 
	C243.985962,300.794006 244.102798,307.728149 235.444931,311.622772 
	C250.873505,316.119232 265.311462,315.685608 279.661865,316.472809 
	C276.852631,318.866058 273.750763,319.032410 270.656189,319.192566 
	C257.236725,319.887115 244.102234,317.844482 231.114288,314.791412 
	C225.933212,313.573486 222.012283,314.410339 219.254242,319.335846 
	C218.296005,321.047119 217.345108,323.144287 215.048004,323.778168 
	C213.944641,321.628693 216.536316,320.300446 215.837219,318.681061 
	C210.226395,317.101562 209.708221,323.485901 205.621826,325.094818 
	C205.697845,323.610809 205.751678,322.559784 205.809097,321.438965 
	C198.871384,323.111176 181.305557,348.993073 184.042816,354.606659 
	C189.372284,347.352448 194.469574,340.414276 199.566864,333.476105 
	C197.744171,341.044189 191.056137,346.322327 189.788818,354.854950 
	C194.724594,354.060272 195.418594,349.472778 198.894211,348.414215 
	C199.403488,351.023560 196.510208,352.442261 197.814026,355.212128 
M325.197144,406.295319 
	C336.729309,413.958374 349.307312,416.558563 362.837555,413.602264 
	C389.488037,407.779388 406.266205,381.563812 400.527893,354.970978 
	C394.900208,328.890839 368.352173,311.589081 342.120544,317.715668 
	C322.238525,322.359222 309.081665,335.055206 304.706848,355.116974 
	C300.141876,376.050903 307.638000,393.015106 325.197144,406.295319 
M204.234894,222.342667 
	C203.652863,219.890472 205.203201,219.155243 207.135559,218.575378 
	C209.594696,217.837448 209.810867,215.835098 209.492035,213.730560 
	C209.140167,211.407974 207.627640,210.374908 205.332809,210.211166 
	C200.666107,209.878174 197.498810,213.205078 198.497833,218.290009 
	C199.744644,224.636200 201.593658,230.867905 203.291977,237.119324 
	C203.822510,239.072235 204.782043,240.915100 207.060608,241.352448 
	C208.225174,241.575943 208.998886,240.762222 209.247559,239.738358 
	C209.759903,237.628799 210.548203,234.624283 208.833511,233.600677 
	C204.511566,231.020660 205.472885,226.755966 204.234894,222.342667 
M333.733215,216.631180 
	C333.963684,213.881088 333.131256,211.635361 330.419128,210.579056 
	C328.032135,209.649353 325.264740,208.970627 323.632385,211.512421 
	C321.843475,214.297989 323.378448,216.129318 326.320435,217.043060 
	C327.556458,217.426910 328.250031,218.537201 328.020477,219.779022 
	C327.393219,223.172165 327.594147,227.004868 325.111908,229.636154 
	C322.987732,231.887894 322.798492,234.303497 322.981262,236.966003 
	C323.102875,238.737534 322.981842,241.054443 325.347412,241.330658 
	C327.569275,241.590088 328.363831,239.550766 328.887817,237.779373 
	C330.864258,231.098022 332.554443,224.344421 333.733215,216.631180 
M187.480606,337.979919 
	C189.870010,334.144348 192.259399,330.308777 194.648804,326.473206 
	C187.616669,330.382080 182.130432,335.339722 180.652786,344.556396 
	C184.263092,342.989258 185.443436,340.537231 187.480606,337.979919 
M378.318756,110.573318 
	C380.795593,110.569923 383.275604,110.640678 385.748138,110.535797 
	C387.273041,110.471115 388.842651,110.138535 388.750763,108.067978 
	C388.679382,106.459572 387.499756,105.680702 386.111603,105.610535 
	C383.316681,105.469246 380.503967,105.462204 377.710052,105.612549 
	C376.367035,105.684830 375.058929,106.369514 374.975647,107.981133 
	C374.888824,109.661499 376.241394,110.110977 378.318756,110.573318 
z"/>
<path fill="#000000" opacity="1.000000" stroke="none" 
	d="
M404.162872,284.905029 
	C406.504852,284.722748 408.334167,285.021484 408.703400,287.304901 
	C408.944214,288.794312 407.922699,289.761841 406.481903,290.073212 
	C404.986389,290.396362 403.415436,290.414154 402.480103,288.974792 
	C401.358429,287.248657 401.947571,285.868835 404.162872,284.905029 
z"/>
<path fill="#000000" opacity="1.000000" stroke="none" 
	d="
M415.834656,288.500549 
	C413.251190,287.675812 412.504578,286.536957 415.259827,285.546844 
	C417.042328,284.906281 419.154572,284.602661 420.693146,286.618805 
	C419.850159,288.980591 417.856659,288.444763 415.834656,288.500549 
z"/>
<path fill="#000000" opacity="1.000000" stroke="none" 
	d="
M65.117371,308.552643 
	C67.891647,302.105896 72.525261,298.890869 79.143990,298.534607 
	C81.380135,298.414215 83.157722,297.812622 84.579269,295.723145 
	C87.362717,291.631836 91.641289,290.072266 96.360504,290.921722 
	C99.570251,291.499451 100.712936,290.339844 101.912445,287.663483 
	C104.916306,280.961304 110.348938,277.622162 117.690384,277.461792 
	C118.978584,277.433685 120.432686,277.292053 120.940102,279.132904 
	C120.256790,281.463226 118.135399,280.982819 116.459663,281.242310 
	C109.392036,282.336700 105.113899,286.528381 104.411995,293.697052 
	C104.055244,297.340607 102.965439,297.963196 99.707466,296.247650 
	C93.657448,293.061859 90.364853,293.950653 86.747490,299.690399 
	C85.624580,301.472107 84.503296,302.450714 82.433792,302.277496 
	C75.196022,301.671631 70.139000,304.352570 68.138382,311.710114 
	C67.859200,312.736847 67.183731,313.452881 65.812271,313.292725 
	C64.072136,312.187256 64.784500,310.490265 65.117371,308.552643 
z"/>
<path fill="#000000" opacity="1.000000" stroke="none" 
	d="
M237.486420,211.519012 
	C239.081543,209.471649 238.578766,207.899948 237.193253,206.383865 
	C235.005249,203.989655 236.773254,202.711655 238.754379,202.017380 
	C241.702133,200.984344 244.464371,201.712585 246.119049,204.482468 
	C248.317688,208.162872 248.420822,212.074432 246.039062,215.732895 
	C244.301453,218.401947 241.644272,219.207275 238.637604,218.140015 
	C235.170502,216.909378 234.658096,214.331802 237.486420,211.519012 
z"/>
<path fill="#000000" opacity="1.000000" stroke="none" 
	d="
M288.754272,201.853851 
	C293.072723,201.180344 295.472015,203.124603 296.731812,206.653107 
	C298.072052,210.406708 297.397034,213.867676 294.716644,216.842575 
	C291.911499,219.955902 284.582001,218.942825 284.069489,211.658127 
	C287.856537,210.601181 292.226044,209.681213 287.160736,204.568451 
	C286.010223,203.407181 287.322693,202.530777 288.754272,201.853851 
z"/>
<path fill="#000000" opacity="1.000000" stroke="none" 
	d="
M286.702087,254.767761 
	C288.955627,253.870316 290.409973,251.900620 292.860504,252.307251 
	C287.477905,263.513855 250.410599,266.963013 238.640717,252.289520 
	C254.246429,260.003662 270.137756,261.301758 286.702087,254.767761 
z"/>
<path fill="#000000" opacity="1.000000" stroke="none" 
	d="
M249.645599,189.688919 
	C252.157272,190.167023 254.215576,190.628815 256.370117,191.112213 
	C256.348938,194.499191 255.351669,196.035492 251.939545,195.681625 
	C245.692383,195.033691 239.417831,194.668320 233.213898,196.254669 
	C230.299454,196.999893 228.419510,195.950989 227.651443,192.336685 
	C234.480011,188.504791 241.962509,189.929672 249.645599,189.688919 
z"/>
<path fill="#000000" opacity="1.000000" stroke="none" 
	d="
M291.944550,195.142258 
	C287.994507,195.275513 284.514496,195.216583 281.077576,196.124008 
	C278.105011,196.908859 275.745911,196.239380 275.436066,191.991974 
	C284.702698,188.621750 294.070557,189.043716 303.806885,190.924057 
	C303.681946,194.261826 302.857880,196.072739 299.382843,195.566452 
	C297.087646,195.232040 294.737244,195.276474 291.944550,195.142258 
z"/>
<path fill="#000000" opacity="1.000000" stroke="none" 
	d="
M266.723145,240.836090 
	C268.403046,240.491669 269.678406,240.167328 270.955109,239.848267 
	C272.158325,239.547562 273.114471,238.136780 274.860992,239.164597 
	C272.894165,243.224182 269.039917,243.993439 265.399414,243.903946 
	C261.997589,243.820328 258.229034,243.108398 256.445923,238.285049 
	C260.152527,239.294647 262.940674,241.442902 266.723145,240.836090 
z"/>
<path fill="#000000" opacity="1.000000" stroke="none" 
	d="
M265.964539,277.240387 
	C263.513702,276.973206 261.243896,277.936707 259.456940,276.101593 
	C262.760529,274.183990 266.946716,274.066589 271.417450,275.843201 
	C269.979095,277.577728 268.076965,277.070099 265.964539,277.240387 
z"/>
<path fill="#000000" opacity="1.000000" stroke="none" 
	d="
M289.273590,314.059265 
	C291.437500,313.665802 293.352661,312.183807 295.332062,314.390717 
	C294.110474,316.848328 291.836792,317.091278 289.609283,316.798706 
	C288.146851,316.606628 287.877258,315.428833 289.273590,314.059265 
z"/>
<path fill="#000000" opacity="1.000000" stroke="none" 
	d="
M396.229492,357.263885 
	C398.590149,373.629730 394.438324,387.575653 382.394989,398.404968 
	C369.302551,410.177582 353.874817,413.340820 337.315704,407.280914 
	C321.179169,401.375671 311.450256,389.451233 308.700531,372.397644 
	C304.747986,347.883881 321.016205,326.574005 343.737183,321.931793 
	C367.351227,317.107147 389.028870,331.193390 395.783325,355.392090 
	C395.917572,355.872955 396.045868,356.355469 396.229492,357.263885 
M375.826874,368.993347 
	C370.898438,371.599518 363.696564,377.419006 361.625946,380.547485 
	C361.083679,381.366852 360.509766,382.251892 360.296173,383.185852 
	C359.663055,385.954559 360.360291,388.403320 363.346405,389.099518 
	C366.967621,389.943756 370.181061,391.703461 373.614319,392.945007 
	C378.136017,394.580109 381.870026,391.905365 381.326447,387.167999 
	C380.935028,383.757111 381.947571,381.337830 384.511536,379.321442 
	C386.660156,377.631714 388.225342,375.512604 389.068878,372.892120 
	C389.703278,370.921387 390.101105,368.957275 388.329346,367.327087 
	C386.769043,365.891479 385.025970,366.149597 383.181763,366.773865 
	C380.980530,367.518982 378.723389,368.098877 375.826874,368.993347 
M363.296539,366.599213 
	C365.512054,366.423767 367.819275,367.004639 370.447906,365.963745 
	C364.643494,361.943451 357.379822,367.971832 352.358124,362.281952 
	C350.647064,365.156738 347.801758,364.938263 344.966675,364.689117 
	C342.075836,364.435028 339.204010,364.251007 336.140839,365.485168 
	C337.969513,366.914032 339.686981,366.543671 341.298279,366.560211 
	C352.402008,366.674347 351.186890,365.648560 351.357574,376.955872 
	C351.388519,379.005341 350.634766,381.378601 352.907318,383.615112 
	C354.157013,379.584229 353.814575,376.066101 353.577637,372.675659 
	C353.237946,367.815033 355.149261,365.907867 359.884033,366.552063 
	C360.701050,366.663239 361.543945,366.584412 363.296539,366.599213 
z"/>
</svg>